<svg xmlns="http://www.w3.org/2000/svg" viewBox="0 0 700 220" font-family="Segoe UI, sans-serif">
  <defs>
    <filter id="ds"><feDropShadow dx="2" dy="2" stdDeviation="3" flood-opacity="0.15"/></filter>
    <marker id="arr" viewBox="0 0 10 10" refX="8" refY="5" markerWidth="6" markerHeight="6" orient="auto"><path d="M 0 0 L 10 5 L 0 10 z" fill="#7f8c8d"/></marker>
  </defs>
  <rect width="700" height="220" rx="12" fill="#f8f9fa" stroke="#dee2e6"/>
  <text x="350" y="28" text-anchor="middle" font-size="16" font-weight="700" fill="#2c3e50">MLOps Pipeline Stages</text>
  <rect x="20" y="50" width="120" height="50" rx="8" fill="#3498db" filter="url(#ds)"/>
  <text x="80" y="72" text-anchor="middle" font-size="10" fill="#fff" font-weight="600">Data Prepare</text>
  <line x1="142" y1="75" x2="168" y2="75" stroke="#7f8c8d" stroke-width="2" marker-end="url(#arr)"/>
  <rect x="170" y="50" width="120" height="50" rx="8" fill="#e67e22" filter="url(#ds)"/>
  <text x="230" y="72" text-anchor="middle" font-size="10" fill="#fff" font-weight="600">Train Model</text>
  <line x1="292" y1="75" x2="318" y2="75" stroke="#7f8c8d" stroke-width="2" marker-end="url(#arr)"/>
  <rect x="320" y="50" width="120" height="50" rx="8" fill="#9b59b6" filter="url(#ds)"/>
  <text x="380" y="72" text-anchor="middle" font-size="10" fill="#fff" font-weight="600">Test / Evaluate</text>
  <line x1="442" y1="75" x2="468" y2="75" stroke="#7f8c8d" stroke-width="2" marker-end="url(#arr)"/>
  <rect x="470" y="50" width="120" height="50" rx="8" fill="#27ae60" filter="url(#ds)"/>
  <text x="530" y="72" text-anchor="middle" font-size="10" fill="#fff" font-weight="600">Deploy / Serve</text>
  <!-- Supporting components -->
  <line x1="80" y1="102" x2="80" y2="130" stroke="#7f8c8d" stroke-width="1.5" marker-end="url(#arr)"/>
  <rect x="20" y="138" width="120" height="40" rx="6" fill="#95a5a6" filter="url(#ds)"/>
  <text x="80" y="163" text-anchor="middle" font-size="9" fill="#fff">Feature Store</text>
  <line x1="380" y1="102" x2="380" y2="130" stroke="#7f8c8d" stroke-width="1.5" marker-end="url(#arr)"/>
  <rect x="320" y="138" width="120" height="40" rx="6" fill="#95a5a6" filter="url(#ds)"/>
  <text x="380" y="163" text-anchor="middle" font-size="9" fill="#fff">Model Registry</text>
  <line x1="530" y1="102" x2="530" y2="130" stroke="#7f8c8d" stroke-width="1.5" marker-end="url(#arr)"/>
  <rect x="470" y="138" width="120" height="40" rx="6" fill="#e74c3c" filter="url(#ds)"/>
  <text x="530" y="163" text-anchor="middle" font-size="9" fill="#fff">Monitor Drift</text>
</svg>