<svg xmlns="http://www.w3.org/2000/svg" viewBox="0 0 500 280" font-family="Segoe UI, sans-serif">
  <defs>
    <filter id="ds"><feDropShadow dx="2" dy="2" stdDeviation="3" flood-opacity="0.15"/></filter>
    <marker id="arr" viewBox="0 0 10 10" refX="8" refY="5" markerWidth="6" markerHeight="6" orient="auto"><path d="M 0 0 L 10 5 L 0 10 z" fill="#7f8c8d"/></marker>
  </defs>
  <rect width="500" height="280" rx="12" fill="#f8f9fa" stroke="#dee2e6"/>
  <text x="250" y="28" text-anchor="middle" font-size="16" font-weight="700" fill="#2c3e50">RAG Application Architecture</text>
  <rect x="30" y="50" width="120" height="45" rx="8" fill="#95a5a6" filter="url(#ds)"/>
  <text x="90" y="78" text-anchor="middle" font-size="11" fill="#fff" font-weight="600">Client</text>
  <line x1="152" y1="72" x2="178" y2="72" stroke="#7f8c8d" stroke-width="2" marker-end="url(#arr)"/>
  <rect x="180" y="50" width="130" height="45" rx="8" fill="#27ae60" filter="url(#ds)"/>
  <text x="245" y="78" text-anchor="middle" font-size="11" fill="#fff" font-weight="600">RAG API</text>
  <line x1="312" y1="72" x2="338" y2="72" stroke="#7f8c8d" stroke-width="2" marker-end="url(#arr)"/>
  <rect x="340" y="50" width="130" height="45" rx="8" fill="#9b59b6" filter="url(#ds)"/>
  <text x="405" y="78" text-anchor="middle" font-size="11" fill="#fff" font-weight="600">OpenAI</text>
  <line x1="245" y1="97" x2="245" y2="128" stroke="#7f8c8d" stroke-width="2" marker-end="url(#arr)"/>
  <rect x="180" y="135" width="130" height="45" rx="8" fill="#3498db" filter="url(#ds)"/>
  <text x="245" y="163" text-anchor="middle" font-size="11" fill="#fff" font-weight="600">AI Search</text>
  <line x1="245" y1="182" x2="245" y2="213" stroke="#7f8c8d" stroke-width="2" marker-end="url(#arr)"/>
  <rect x="180" y="220" width="130" height="45" rx="8" fill="#e67e22" filter="url(#ds)"/>
  <text x="245" y="248" text-anchor="middle" font-size="11" fill="#fff" font-weight="600">Blob Storage</text>
</svg>