<svg xmlns="http://www.w3.org/2000/svg" viewBox="0 0 640 520" font-family="Segoe UI, sans-serif">
  <defs>
    <filter id="ds"><feDropShadow dx="2" dy="2" stdDeviation="3" flood-opacity="0.15"/></filter>
  </defs>
  <rect width="640" height="520" rx="12" fill="#f8f9fa" stroke="#dee2e6"/>
  <text x="320" y="28" text-anchor="middle" font-size="18" font-weight="700" fill="#2c3e50">Module Selection Guide</text>
  <text x="320" y="50" text-anchor="middle" font-size="11" fill="#7f8c8d">What do you need?</text>
  <!-- Items -->
  <rect x="40" y="65" width="560" height="36" rx="6" fill="#27ae60" filter="url(#ds)"/>
  <text x="55" y="88" font-size="11" fill="#fff" font-weight="600">"I need consistent resource names"</text>
  <text x="430" y="88" font-size="10" fill="rgba(255,255,255,0.8)">&#8594; naming (always use first!)</text>
  <rect x="40" y="110" width="560" height="36" rx="6" fill="#3498db" filter="url(#ds)"/>
  <text x="55" y="133" font-size="11" fill="#fff" font-weight="600">"I need network infrastructure"</text>
  <text x="430" y="133" font-size="10" fill="rgba(255,255,255,0.8)">&#8594; networking</text>
  <rect x="40" y="155" width="560" height="36" rx="6" fill="#3498db" filter="url(#ds)"/>
  <text x="55" y="178" font-size="11" fill="#fff" font-weight="600">"I need a Kubernetes cluster"</text>
  <text x="430" y="178" font-size="10" fill="rgba(255,255,255,0.8)">&#8594; aks-cluster (req: networking)</text>
  <rect x="40" y="200" width="560" height="36" rx="6" fill="#3498db" filter="url(#ds)"/>
  <text x="55" y="223" font-size="11" fill="#fff" font-weight="600">"I need to store container images"</text>
  <text x="430" y="223" font-size="10" fill="rgba(255,255,255,0.8)">&#8594; container-registry (req: networking)</text>
  <rect x="40" y="245" width="560" height="36" rx="6" fill="#e67e22" filter="url(#ds)"/>
  <text x="55" y="268" font-size="11" fill="#fff" font-weight="600">"I need secrets management"</text>
  <text x="430" y="268" font-size="10" fill="rgba(255,255,255,0.8)">&#8594; security (req: networking)</text>
  <rect x="40" y="290" width="560" height="36" rx="6" fill="#e67e22" filter="url(#ds)"/>
  <text x="55" y="313" font-size="11" fill="#fff" font-weight="600">"I need databases"</text>
  <text x="430" y="313" font-size="10" fill="rgba(255,255,255,0.8)">&#8594; databases (req: networking, security)</text>
  <rect x="40" y="335" width="560" height="36" rx="6" fill="#9b59b6" filter="url(#ds)"/>
  <text x="55" y="358" font-size="11" fill="#fff" font-weight="600">"I need GitOps"</text>
  <text x="430" y="358" font-size="10" fill="rgba(255,255,255,0.8)">&#8594; argocd (req: aks-cluster)</text>
  <rect x="40" y="380" width="560" height="36" rx="6" fill="#9b59b6" filter="url(#ds)"/>
  <text x="55" y="403" font-size="11" fill="#fff" font-weight="600">"I need K8s secrets from Azure"</text>
  <text x="430" y="403" font-size="10" fill="rgba(255,255,255,0.8)">&#8594; external-secrets (req: aks, security)</text>
  <rect x="40" y="425" width="560" height="36" rx="6" fill="#e74c3c" filter="url(#ds)"/>
  <text x="55" y="448" font-size="11" fill="#fff" font-weight="600">"I need AI/ML capabilities"</text>
  <text x="430" y="448" font-size="10" fill="rgba(255,255,255,0.8)">&#8594; ai-foundry (req: networking)</text>
  <rect x="40" y="470" width="560" height="36" rx="6" fill="#95a5a6" filter="url(#ds)"/>
  <text x="55" y="493" font-size="11" fill="#fff" font-weight="600">"I need cost monitoring"</text>
  <text x="430" y="493" font-size="10" fill="rgba(255,255,255,0.8)">&#8594; cost-management (no prereqs)</text>
</svg>