<svg xmlns="http://www.w3.org/2000/svg" viewBox="0 0 600 200" font-family="Segoe UI, sans-serif">
  <defs><filter id="ds"><feDropShadow dx="1" dy="1" stdDeviation="2" flood-opacity="0.12"/></filter></defs>
  <rect width="600" height="200" rx="12" fill="#f8f9fa" stroke="#dee2e6"/>
  <text x="300" y="24" text-anchor="middle" font-size="16" font-weight="700" fill="#2c3e50">State Lock Error — Decision Tree</text>
  <rect x="150" y="42" width="300" height="30" rx="6" fill="#e67e22" filter="url(#ds)"/>
  <text x="300" y="62" text-anchor="middle" font-size="11" fill="#fff" font-weight="600">Is another terraform process running?</text>
  <line x1="220" y1="74" x2="150" y2="100" stroke="#7f8c8d" stroke-width="1.5"/>
  <text x="170" y="90" font-size="9" fill="#27ae60" font-weight="600">YES</text>
  <rect x="60" y="105" width="180" height="30" rx="6" fill="#27ae60" filter="url(#ds)"/>
  <text x="150" y="125" text-anchor="middle" font-size="10" fill="#fff">Wait for it to finish</text>
  <line x1="380" y1="74" x2="420" y2="100" stroke="#7f8c8d" stroke-width="1.5"/>
  <text x="410" y="90" font-size="9" fill="#e74c3c" font-weight="600">NO</text>
  <rect x="320" y="105" width="230" height="30" rx="6" fill="#3498db" filter="url(#ds)"/>
  <text x="435" y="125" text-anchor="middle" font-size="10" fill="#fff">How old is the lock?</text>
  <line x1="380" y1="137" x2="340" y2="158" stroke="#7f8c8d" stroke-width="1.5"/>
  <rect x="240" y="160" width="140" height="26" rx="5" fill="#27ae60" opacity="0.85"/>
  <text x="310" y="178" text-anchor="middle" font-size="9" fill="#fff">&lt; 30 min: Wait</text>
  <line x1="480" y1="137" x2="500" y2="158" stroke="#7f8c8d" stroke-width="1.5"/>
  <rect x="400" y="160" width="170" height="26" rx="5" fill="#e74c3c" opacity="0.85"/>
  <text x="485" y="178" text-anchor="middle" font-size="9" fill="#fff">&gt; 30 min: Force unlock</text>
</svg>